HIERARCHY
ROOT joint_Root
{
	OFFSET 0.0 0.0 0.0
	CHANNELS 6 Xposition Yposition Zposition Zrotation Xrotation Yrotation 
	JOINT Hips
	{
		OFFSET -17.1583 93.1646 452.98
		CHANNELS 6 Xposition Yposition Zposition Zrotation Xrotation Yrotation 
		JOINT Spine
		{
			OFFSET 15.7357 0.0 0.0
			CHANNELS 6 Xposition Yposition Zposition Zrotation Xrotation Yrotation 
			JOINT Chest
			{
				OFFSET 8.98455 -0.406207 0.0
				CHANNELS 6 Xposition Yposition Zposition Zrotation Xrotation Yrotation 
				JOINT Neck
				{
					OFFSET 16.3773 0.0 0.0
					CHANNELS 6 Xposition Yposition Zposition Zrotation Xrotation Yrotation 
					JOINT Head
					{
						OFFSET 6.45672 0.0 0.0
						CHANNELS 6 Xposition Yposition Zposition Zrotation Xrotation Yrotation 
						End Site
						{
							OFFSET 0.0 0.0 0.0
						}
					}
				}
				JOINT Shoulder_L
				{
					OFFSET 12.9942 -0.242716 4.98039
					CHANNELS 6 Xposition Yposition Zposition Zrotation Xrotation Yrotation 
					JOINT UpperArm_L
					{
						OFFSET 5.34809 0.0 0.0
						CHANNELS 6 Xposition Yposition Zposition Zrotation Xrotation Yrotation 
						JOINT LowerArm_L
						{
							OFFSET 24.3286 1.87007e-05 0.0
							CHANNELS 6 Xposition Yposition Zposition Zrotation Xrotation Yrotation 
							JOINT Hand_L
							{
								OFFSET 22.2916 0.0 0.0
								CHANNELS 6 Xposition Yposition Zposition Zrotation Xrotation Yrotation 
								End Site
								{
									OFFSET 0.0 0.0 0.0
								}
							}
						}
					}
				}
				JOINT Shoulder_R
				{
					OFFSET 12.9945 -0.242716 -4.98039
					CHANNELS 6 Xposition Yposition Zposition Zrotation Xrotation Yrotation 
					JOINT UpperArm_R
					{
						OFFSET -5.34813 0.0 0.0
						CHANNELS 6 Xposition Yposition Zposition Zrotation Xrotation Yrotation 
						JOINT LowerArm_R
						{
							OFFSET -24.3289 0.000322201 0.0
							CHANNELS 6 Xposition Yposition Zposition Zrotation Xrotation Yrotation 
							JOINT Hand_R
							{
								OFFSET -22.2915 -0.000108084 0.0
								CHANNELS 6 Xposition Yposition Zposition Zrotation Xrotation Yrotation 
								End Site
								{
									OFFSET 0.0 0.0 0.0
								}
							}
						}
					}
				}
			}
		}
		JOINT UpperLeg_L
		{
			OFFSET -2.19248 -6.46944 0.0
			CHANNELS 6 Xposition Yposition Zposition Zrotation Xrotation Yrotation 
			JOINT LowerLeg_L
			{
				OFFSET 39.0811 0.0 -1.23785e-05
				CHANNELS 6 Xposition Yposition Zposition Zrotation Xrotation Yrotation 
				JOINT Foot_L
				{
					OFFSET 40.9854 0.0 -1.26872e-05
					CHANNELS 6 Xposition Yposition Zposition Zrotation Xrotation Yrotation 
					JOINT Toes_L
					{
						OFFSET 11.7543 0.0 0.0
						CHANNELS 6 Xposition Yposition Zposition Zrotation Xrotation Yrotation 
						End Site
						{
							OFFSET 0.0 0.0 0.0
						}
					}
				}
			}
		}
		JOINT UpperLeg_R
		{
			OFFSET -2.19251 6.46944 0.0
			CHANNELS 6 Xposition Yposition Zposition Zrotation Xrotation Yrotation 
			JOINT LowerLeg_R
			{
				OFFSET -39.0811 -0.00228153 -0.0401928
				CHANNELS 6 Xposition Yposition Zposition Zrotation Xrotation Yrotation 
				JOINT Foot_R
				{
					OFFSET -40.9854 0.0 0.0
					CHANNELS 6 Xposition Yposition Zposition Zrotation Xrotation Yrotation 
					JOINT Toes_R
					{
						OFFSET -11.7543 0.0 0.0
						CHANNELS 6 Xposition Yposition Zposition Zrotation Xrotation Yrotation 
						End Site
						{
							OFFSET 0.0 0.0 0.0
						}
					}
				}
			}
		}
	}
}
MOTION
Frames:	9
Frame Time:	0.0333333
0.000000 0.000000 0.000000 0.000000 0.000000 -0.000000 137.707000 89.132200 201.655000 -87.455900 43.874300 179.505000 15.735700 0.000005 -0.000001 84.412400 86.151600 -83.341000 8.984550 -0.406207 -0.000000 -0.097195 -0.822731 2.140870 16.377300 -0.000001 -0.000001 9.145250 12.444600 -1.968960 6.456720 -0.000001 -0.000000 3.463100 18.819000 0.780989 12.994200 -0.242716 4.980390 -92.698600 6.506990 -67.416400 5.348090 -0.000007 -0.000001 -75.351500 -1.419700 5.086200 24.328600 0.000019 0.000005 11.787700 21.813400 -29.303300 22.291600 -0.000001 0.000005 53.936700 4.465400 17.169700 12.994500 -0.242716 -4.980390 89.382800 1.762560 -70.698900 -5.348130 -0.000001 -0.000004 -69.781300 20.541600 -5.655710 -24.328900 0.000322 -0.000009 6.877500 17.605500 -21.744700 -22.291500 -0.000108 -0.000004 30.439700 5.442550 -4.373600 -2.192480 -6.469440 -0.000000 166.563000 -0.183097 -14.167800 39.081100 -0.000007 -0.000012 0.412329 -0.746643 28.910500 40.985400 -0.000006 -0.000013 16.826500 2.504220 -67.338100 11.754300 -0.000000 0.000003 0.000185 0.164443 -9.907260 -2.192510 6.469440 -0.000001 171.416000 7.112330 162.353000 -39.081100 -0.002282 -0.040193 0.348133 -0.116528 71.339100 -40.985400 0.000008 0.000006 -9.861960 -0.869531 -37.208800 -11.754300 -0.000006 -0.000006 -0.001561 0.190750 -8.834940
0.000000 0.000000 0.000000 0.000000 0.000000 -0.000000 140.459000 90.008600 199.297000 -85.979300 39.627200 179.004000 15.735700 0.000005 -0.000001 76.114700 85.914400 -74.338400 8.984550 -0.406207 -0.000000 0.201624 -2.077600 3.554240 16.377300 -0.000001 -0.000001 9.088670 11.720800 -2.304910 6.456720 -0.000001 -0.000000 3.817800 18.080700 0.125206 12.994200 -0.242716 4.980390 -92.578800 6.424800 -68.076000 5.348090 -0.000007 -0.000001 -75.698900 2.870130 3.803810 24.328600 0.000019 0.000005 19.432200 27.596600 -37.282700 22.291600 -0.000001 0.000005 55.084300 4.509960 16.433900 12.994500 -0.242716 -4.980390 89.486900 1.436880 -70.346400 -5.348130 -0.000001 -0.000004 -69.287400 17.287300 -2.182110 -24.328900 0.000322 -0.000009 4.859070 18.328800 -15.130400 -22.291500 -0.000108 -0.000004 29.310400 5.423880 -3.730800 -2.192480 -6.469440 -0.000000 168.297000 1.930300 -8.519860 39.081100 -0.000007 -0.000012 0.323083 -0.689590 25.104600 40.985400 -0.000006 -0.000013 16.871900 4.381490 -68.315000 11.754300 -0.000000 0.000003 0.000229 0.163677 -9.938330 -2.192510 6.469440 -0.000001 173.060000 5.477070 158.770000 -39.081100 -0.002282 -0.040193 0.250454 -0.087888 70.438900 -40.985400 0.000008 0.000006 -8.616930 -4.552630 -44.708000 -11.754300 -0.000006 -0.000006 -0.000943 0.182262 -9.179920
0.000000 0.000000 0.000000 0.000000 0.000000 -0.000000 143.152000 90.861200 197.103000 -84.397700 35.031600 178.096000 15.735700 0.000005 -0.000001 68.622700 85.676500 -66.113500 8.984550 -0.406207 -0.000000 0.364897 -3.312900 5.026680 16.377300 -0.000001 -0.000001 8.508710 10.802000 -2.174600 6.456720 -0.000001 -0.000000 3.860780 17.157800 -0.561841 12.994200 -0.242716 4.980390 -92.463800 6.395420 -68.879400 5.348090 -0.000007 -0.000001 -75.278800 5.043600 2.265460 24.328600 0.000019 0.000005 25.552300 28.410900 -45.134800 22.291600 -0.000001 0.000005 55.539100 4.481820 16.898700 12.994500 -0.242716 -4.980390 89.577400 1.149010 -69.803200 -5.348130 -0.000001 -0.000004 -68.532800 12.501600 1.414680 -24.328900 0.000322 -0.000009 3.381340 19.854700 -9.872390 -22.291500 -0.000108 -0.000004 29.869900 5.389900 -2.614030 -2.192480 -6.469440 -0.000000 170.496000 4.301680 -3.108750 39.081100 -0.000007 -0.000012 0.206116 -0.556430 20.326300 40.985400 -0.000006 -0.000013 16.753300 6.674740 -68.843200 11.754300 -0.000000 0.000003 0.000479 0.159123 -10.123300 -2.192510 6.469440 -0.000001 174.756000 3.709490 156.185000 -39.081100 -0.002282 -0.040193 0.155921 -0.067643 66.116700 -40.985400 0.000008 0.000006 -7.402180 -8.873040 -52.765400 -11.754300 -0.000006 -0.000006 -0.001318 0.187499 -8.967090
0.000000 0.000000 0.000000 0.000000 0.000000 -0.000000 145.793000 91.546400 195.071000 -83.195000 29.966600 177.159000 15.735700 0.000005 -0.000001 60.613100 85.411600 -57.537600 8.984550 -0.406207 -0.000000 0.366553 -4.700250 6.164740 16.377300 -0.000001 -0.000001 7.596390 9.668940 -1.718500 6.456720 -0.000001 -0.000000 3.606760 16.112200 -0.776309 12.994200 -0.242716 4.980390 -92.356600 6.369210 -69.646800 5.348090 -0.000007 -0.000001 -74.558700 5.208690 0.493860 24.328600 0.000019 0.000005 30.018700 26.597000 -52.226200 22.291600 -0.000001 0.000005 55.447000 4.441580 17.553900 12.994500 -0.242716 -4.980390 89.636500 0.957021 -69.201700 -5.348130 -0.000001 -0.000004 -67.441700 7.515880 5.243130 -24.328900 0.000322 -0.000009 2.307530 21.094600 -6.392430 -22.291500 -0.000108 -0.000004 30.259500 5.362500 -1.757200 -2.192480 -6.469440 -0.000000 172.985000 6.737480 1.304430 39.081100 -0.000007 -0.000012 0.102260 -0.359080 15.896300 40.985400 -0.000006 -0.000013 15.000400 9.718290 -68.730400 11.754300 -0.000000 0.000003 0.000896 0.150853 -10.458900 -2.192510 6.469440 -0.000001 175.882000 2.004930 154.716000 -39.081100 -0.002282 -0.040193 0.099001 -0.059262 58.256600 -40.985400 0.000008 0.000006 -7.140680 -13.908000 -58.600500 -11.754300 -0.000006 -0.000006 -0.001457 0.189366 -8.891210
0.000000 0.000000 0.000000 0.000000 0.000000 -0.000000 148.360000 91.987300 192.966000 -82.886300 25.195500 176.643000 15.735700 0.000005 -0.000001 54.292600 85.154600 -51.006800 8.984550 -0.406207 -0.000000 0.284228 -5.868820 6.586320 16.377300 -0.000001 -0.000001 6.586700 8.447150 -1.190910 6.456720 -0.000001 -0.000000 3.165960 14.938600 -0.539647 12.994200 -0.242716 4.980390 -92.208100 6.204020 -70.364800 5.348090 -0.000007 -0.000001 -73.997900 4.295410 -1.466060 24.328600 0.000019 0.000005 34.293600 24.650800 -58.549300 22.291600 -0.000001 0.000005 55.740800 4.380760 18.528800 12.994500 -0.242716 -4.980390 89.757700 0.621412 -68.699800 -5.348130 -0.000001 -0.000004 -66.515500 2.980370 9.435410 -24.328900 0.000322 -0.000009 1.801610 21.554800 -4.896090 -22.291500 -0.000108 -0.000004 30.893500 5.338690 -1.042910 -2.192480 -6.469440 -0.000000 175.485000 7.614650 4.447750 39.081100 -0.000007 -0.000012 0.022955 -0.102666 12.603600 40.985400 -0.000006 -0.000013 10.470700 14.557600 -67.680300 11.754300 -0.000000 0.000003 0.001471 0.137389 -11.005300 -2.192510 6.469440 -0.000001 175.716000 -0.320557 154.574000 -39.081100 -0.002282 -0.040193 0.058954 -0.051094 47.468600 -40.985400 0.000008 0.000006 -6.934330 -18.524900 -62.536500 -11.754300 -0.000006 -0.000006 -0.002028 0.196730 -8.591770
0.000000 0.000000 0.000000 0.000000 0.000000 -0.000000 150.862000 92.101900 190.806000 -83.248600 21.248800 176.240000 15.735700 0.000005 -0.000001 49.452300 85.000700 -46.305800 8.984550 -0.406207 -0.000000 0.028250 -6.710580 6.296500 16.377300 -0.000001 -0.000001 5.510860 7.382690 -0.563613 6.456720 -0.000001 -0.000000 2.731820 13.831300 -0.107452 12.994200 -0.242716 4.980390 -91.971600 5.745470 -71.023700 5.348090 -0.000007 -0.000001 -73.621800 2.982400 -3.410060 24.328600 0.000019 0.000005 37.956600 22.789200 -63.591800 22.291600 -0.000001 0.000005 56.436700 4.314160 19.570700 12.994500 -0.242716 -4.980390 89.943800 0.141396 -68.332100 -5.348130 -0.000001 -0.000004 -66.000700 -0.782203 13.476400 -24.328900 0.000322 -0.000009 1.610440 20.309200 -4.633890 -22.291500 -0.000108 -0.000004 31.887000 5.312870 -0.294050 -2.192480 -6.469440 -0.000000 177.416000 7.446200 6.695360 39.081100 -0.000007 -0.000012 -0.000643 0.003531 10.317500 40.985400 -0.000006 -0.000013 7.221460 19.549200 -66.726600 11.754300 -0.000000 0.000003 0.002042 0.119286 -11.739500 -2.192510 6.469440 -0.000001 174.269000 -3.711990 155.304000 -39.081100 -0.002282 -0.040193 0.032516 -0.041981 34.843300 -40.985400 0.000008 0.000006 -6.955000 -21.156100 -65.543400 -11.754300 -0.000006 -0.000006 -0.002192 0.198765 -8.508990
0.000000 0.000000 0.000000 0.000000 0.000000 -0.000000 153.390000 91.892700 188.447000 -83.842600 18.398100 175.916000 15.735700 0.000005 -0.000001 46.052300 84.890900 -43.216400 8.984550 -0.406207 -0.000000 -0.218364 -7.287270 5.660720 16.377300 -0.000001 -0.000001 4.460100 6.662340 0.024655 6.456720 -0.000001 -0.000000 2.289200 12.972400 0.350121 12.994200 -0.242716 4.980390 -91.788200 5.344420 -71.469600 5.348090 -0.000007 -0.000001 -73.420400 0.970720 -4.823400 24.328600 0.000019 0.000005 40.758400 20.900700 -67.514600 22.291600 -0.000001 0.000005 57.506500 4.248640 20.572800 12.994500 -0.242716 -4.980390 90.153900 -0.384433 -68.184300 -5.348130 -0.000001 -0.000004 -65.583800 -4.277380 16.586000 -24.328900 0.000322 -0.000009 1.560230 19.873900 -4.583910 -22.291500 -0.000108 -0.000004 32.852200 5.296200 0.176306 -2.192480 -6.469440 -0.000000 178.514000 7.765160 7.818270 39.081100 -0.000007 -0.000012 0.000091 -0.000486 10.673300 40.985400 -0.000006 -0.000013 7.464330 22.264600 -67.653400 11.754300 -0.000000 0.000003 0.002444 0.094879 -12.729100 -2.192510 6.469440 -0.000001 171.972000 -7.897080 156.302000 -39.081100 -0.002282 -0.040193 0.016366 -0.031505 22.499700 -40.985400 0.000008 0.000006 -7.011680 -19.157200 -67.297300 -11.754300 -0.000006 -0.000006 -0.002337 0.200526 -8.437370
0.000000 0.000000 0.000000 0.000000 0.000000 -0.000000 155.928000 91.485600 185.758000 -84.277700 16.813100 175.799000 15.735700 0.000005 -0.000001 44.913000 84.837100 -42.360300 8.984550 -0.406207 -0.000000 -0.299694 -7.490520 5.088490 16.377300 -0.000001 -0.000001 3.613590 6.266700 0.418942 6.456720 -0.000001 -0.000000 1.792720 12.471400 0.594562 12.994200 -0.242716 4.980390 -91.740400 5.263090 -71.672300 5.348090 -0.000007 -0.000001 -73.384100 -1.396270 -5.636440 24.328600 0.000019 0.000005 41.687900 19.057900 -69.864900 22.291600 -0.000001 0.000005 59.087300 4.200640 21.301100 12.994500 -0.242716 -4.980390 90.321900 -0.815510 -68.458300 -5.348130 -0.000001 -0.000004 -65.282800 -6.451430 18.587900 -24.328900 0.000322 -0.000009 1.464660 19.296100 -4.427440 -22.291500 -0.000108 -0.000004 33.586300 5.283610 0.525357 -2.192480 -6.469440 -0.000000 179.181000 8.620760 8.834150 39.081100 -0.000007 -0.000012 0.001342 -0.006200 12.220200 40.985400 -0.000006 -0.000013 7.421210 23.075000 -68.369500 11.754300 -0.000000 0.000003 0.002205 0.055551 -14.323500 -2.192510 6.469440 -0.000001 170.011000 -11.751100 156.828000 -39.081100 -0.002282 -0.040193 0.007454 -0.018096 12.824700 -40.985400 0.000008 0.000006 -7.455350 -15.137800 -67.532600 -11.754300 -0.000006 -0.000006 -0.002474 0.202171 -8.370470
0.000000 0.000000 0.000000 0.000000 0.000000 -0.000000 158.632000 90.966600 182.656000 -84.230000 15.938900 175.772000 15.735700 0.000005 -0.000001 45.140800 84.810000 -42.660000 8.984550 -0.406207 -0.000000 -0.236924 -7.493160 4.948830 16.377300 -0.000001 -0.000001 2.924070 6.120650 0.585093 6.456720 -0.000001 -0.000000 1.346610 12.245000 0.574628 12.994200 -0.242716 4.980390 -91.796900 5.458980 -71.748900 5.348090 -0.000007 -0.000001 -73.600000 -3.592060 -5.686450 24.328600 0.000019 0.000005 42.375900 18.005000 -71.283800 22.291600 -0.000001 0.000005 59.883600 4.142270 22.167300 12.994500 -0.242716 -4.980390 90.315900 -0.817324 -68.869500 -5.348130 -0.000001 -0.000004 -64.785900 -7.452390 19.194700 -24.328900 0.000322 -0.000009 1.242470 18.310000 -3.952140 -22.291500 -0.000108 -0.000004 34.460100 5.265560 1.017210 -2.192480 -6.469440 -0.000000 -179.849000 8.986650 10.007900 39.081100 -0.000007 -0.000012 0.002544 -0.009900 14.415400 40.985400 -0.000006 -0.000013 7.516690 23.531900 -68.658900 11.754300 -0.000000 0.000003 -0.000535 -0.008563 -16.925300 -2.192510 6.469440 -0.000001 170.852000 -11.522700 157.157000 -39.081100 -0.002282 -0.040193 0.004819 -0.012157 6.915860 -40.985400 0.000008 0.000006 -8.383260 -9.874330 -66.962100 -11.754300 -0.000006 -0.000006 -0.002756 0.205476 -8.235980
